<?xml version="1.0" standalone="no"?>
<!DOCTYPE svg PUBLIC "-//W3C//DTD SVG 20010904//EN"
 "http://www.w3.org/TR/2001/REC-SVG-20010904/DTD/svg10.dtd">
<svg version="1.0" xmlns="http://www.w3.org/2000/svg"
 width="1254.000000pt" height="1254.000000pt" viewBox="0 0 1254.000000 1254.000000"
 preserveAspectRatio="xMidYMid meet">

<g transform="translate(0.000000,1254.000000) scale(0.100000,-0.100000)"
fill="#000000" stroke="none">
<path d="M3735 10374 c-126 -141 -379 -421 -562 -622 l-331 -367 1276 -5 1277
-5 5 -999 5 -998 90 108 c50 59 101 121 115 138 14 17 113 135 220 262 276
326 676 804 1158 1382 l94 112 653 0 c372 0 655 4 657 9 2 5 60 71 129 147 69
77 265 292 434 479 349 384 544 597 560 607 5 4 -1241 8 -2770 8 l-2780 -1
-230 -255z"/>
<path d="M6723 8634 c-219 -262 -423 -507 -453 -544 -49 -61 -487 -583 -764
-911 l-106 -126 2 -1572 3 -1572 357 388 c196 213 398 431 447 483 l90 95 1
-233 c0 -130 4 -232 9 -230 5 2 91 102 192 223 101 121 283 339 406 483 l223
264 0 1864 c0 1025 -2 1864 -4 1864 -2 0 -184 -214 -403 -476z"/>
<path d="M6510 2630 l0 -800 140 0 140 0 0 800 0 800 -140 0 -140 0 0 -800z"/>
<path d="M7127 3423 c-4 -3 -7 -363 -7 -800 l0 -793 140 0 140 0 0 800 0 800
-133 0 c-74 0 -137 -3 -140 -7z"/>
<path d="M3712 3223 l3 -128 268 -3 267 -2 0 -630 0 -630 145 0 145 0 0 630 0
630 268 2 267 3 3 128 3 127 -686 0 -686 0 3 -127z"/>
<path d="M5485 2959 c-63 -12 -169 -46 -217 -71 l-38 -18 0 -121 c0 -93 3
-120 13 -116 171 76 237 92 382 91 101 0 127 -3 165 -21 84 -39 130 -111 130
-202 l0 -49 -52 14 c-156 41 -359 38 -485 -6 -106 -37 -197 -126 -223 -218
-37 -136 16 -288 128 -362 80 -53 165 -73 295 -68 99 4 120 8 179 35 36 17 87
50 112 73 l46 43 0 -67 0 -66 135 0 135 0 0 378 c0 307 -3 389 -15 437 -44
165 -160 272 -342 310 -75 16 -269 18 -348 4z m295 -654 c36 -3 82 -11 104
-16 l38 -10 -4 -58 c-6 -90 -63 -153 -172 -191 -104 -37 -221 -23 -283 34 -29
27 -36 41 -40 82 -6 60 22 107 80 137 41 21 132 36 182 31 17 -2 59 -6 95 -9z"/>
<path d="M7583 2938 c3 -7 63 -141 135 -298 163 -358 311 -686 328 -725 11
-27 10 -35 -18 -88 -17 -32 -45 -68 -62 -80 -36 -25 -124 -34 -203 -19 l-53 9
0 -123 0 -122 66 -7 c184 -20 313 14 400 107 53 56 62 75 379 768 125 272 238
516 251 543 l24 47 -149 0 -148 0 -86 -197 c-46 -109 -120 -280 -162 -380 -43
-101 -82 -183 -86 -183 -4 0 -11 10 -14 23 -4 12 -18 47 -31 77 -26 62 -264
628 -271 648 -4 9 -44 12 -155 12 -116 0 -149 -3 -145 -12z"/>
</g>
</svg>
